<?xml version="1.0" encoding="UTF-8"?>
<svg id="Capa_2" data-name="Capa 2" xmlns="http://www.w3.org/2000/svg" viewBox="0 0 86 75">
  <defs>
    <style>
      .cls-1 {
        fill: #fff;
        stroke-width: 0px;
      }
    </style>
  </defs>
  <g id="Capa_1-2" data-name="Capa 1">
    <path class="cls-1" d="m0,10.71c0-2.84,1.13-5.57,3.15-7.58C5.16,1.13,7.9,0,10.75,0h64.5c2.85,0,5.59,1.13,7.6,3.14s3.15,4.73,3.15,7.58v53.57c0,2.84-1.13,5.57-3.15,7.58-2.02,2.01-4.75,3.14-7.6,3.14H10.75c-2.85,0-5.59-1.13-7.6-3.14-2.02-2.01-3.15-4.73-3.15-7.58V10.71Zm5.38,48.21v5.36c0,1.42.57,2.78,1.57,3.79,1.01,1,2.38,1.57,3.8,1.57h64.5c1.43,0,2.79-.56,3.8-1.57,1.01-1,1.57-2.37,1.57-3.79v-18.75l-20.3-10.43c-.5-.25-1.07-.34-1.63-.25-.56.09-1.07.35-1.47.75l-19.94,19.88-14.3-9.49c-.52-.34-1.14-.5-1.75-.44-.62.06-1.19.33-1.63.77l-14.22,12.61Zm26.88-34.82c0-2.13-.85-4.18-2.36-5.68-1.51-1.51-3.56-2.35-5.7-2.35s-4.19.85-5.7,2.35c-1.51,1.51-2.36,3.55-2.36,5.68s.85,4.18,2.36,5.68c1.51,1.51,3.56,2.35,5.7,2.35s4.19-.85,5.7-2.35c1.51-1.51,2.36-3.55,2.36-5.68Z"/>
  </g>
</svg>