<svg id="visual" viewBox="0 0 960 540" width="960" height="540" xmlns="http://www.w3.org/2000/svg" xmlns:xlink="http://www.w3.org/1999/xlink" version="1.1"><path d="M0 105L10 104.5C20 104 40 103 60 103C80 103 100 104 120 104.3C140 104.7 160 104.3 180 101.5C200 98.7 220 93.3 240 91.7C260 90 280 92 300 94.2C320 96.3 340 98.7 360 98C380 97.3 400 93.7 420 91.7C440 89.7 460 89.3 480 89.2C500 89 520 89 540 88.8C560 88.7 580 88.3 600 90.5C620 92.7 640 97.3 660 98.5C680 99.7 700 97.3 720 95.2C740 93 760 91 780 90.8C800 90.7 820 92.3 840 91C860 89.7 880 85.3 900 83.5C920 81.7 940 82.3 950 82.7L960 83L960 0L950 0C940 0 920 0 900 0C880 0 860 0 840 0C820 0 800 0 780 0C760 0 740 0 720 0C700 0 680 0 660 0C640 0 620 0 600 0C580 0 560 0 540 0C520 0 500 0 480 0C460 0 440 0 420 0C400 0 380 0 360 0C340 0 320 0 300 0C280 0 260 0 240 0C220 0 200 0 180 0C160 0 140 0 120 0C100 0 80 0 60 0C40 0 20 0 10 0L0 0Z" fill="#658dba"></path><path d="M0 72L10 71.5C20 71 40 70 60 70.5C80 71 100 73 120 71.7C140 70.3 160 65.7 180 65.5C200 65.3 220 69.7 240 69.7C260 69.7 280 65.3 300 63.8C320 62.3 340 63.7 360 63.7C380 63.7 400 62.3 420 60.8C440 59.3 460 57.7 480 58.7C500 59.7 520 63.3 540 63.3C560 63.3 580 59.7 600 61C620 62.3 640 68.7 660 68.7C680 68.7 700 62.3 720 60.5C740 58.7 760 61.3 780 64.3C800 67.3 820 70.7 840 70C860 69.3 880 64.7 900 63.8C920 63 940 66 950 67.5L960 69L960 0L950 0C940 0 920 0 900 0C880 0 860 0 840 0C820 0 800 0 780 0C760 0 740 0 720 0C700 0 680 0 660 0C640 0 620 0 600 0C580 0 560 0 540 0C520 0 500 0 480 0C460 0 440 0 420 0C400 0 380 0 360 0C340 0 320 0 300 0C280 0 260 0 240 0C220 0 200 0 180 0C160 0 140 0 120 0C100 0 80 0 60 0C40 0 20 0 10 0L0 0Z" fill="#626fac"></path><path d="M0 34L10 33.8C20 33.7 40 33.3 60 33.7C80 34 100 35 120 36.8C140 38.7 160 41.3 180 42C200 42.7 220 41.3 240 40.7C260 40 280 40 300 40.7C320 41.3 340 42.7 360 42.7C380 42.7 400 41.3 420 40.5C440 39.7 460 39.3 480 40C500 40.7 520 42.3 540 41.2C560 40 580 36 600 34.8C620 33.7 640 35.3 660 36.5C680 37.7 700 38.3 720 39.3C740 40.3 760 41.7 780 40.8C800 40 820 37 840 35.2C860 33.3 880 32.7 900 34.2C920 35.7 940 39.3 950 41.2L960 43L960 0L950 0C940 0 920 0 900 0C880 0 860 0 840 0C820 0 800 0 780 0C760 0 740 0 720 0C700 0 680 0 660 0C640 0 620 0 600 0C580 0 560 0 540 0C520 0 500 0 480 0C460 0 440 0 420 0C400 0 380 0 360 0C340 0 320 0 300 0C280 0 260 0 240 0C220 0 200 0 180 0C160 0 140 0 120 0C100 0 80 0 60 0C40 0 20 0 10 0L0 0Z" fill="#6b4e93"></path></svg>