<?xml version="1.0" encoding="UTF-8"?>
<svg id="Capa_2" data-name="Capa 2" xmlns="http://www.w3.org/2000/svg" viewBox="0 0 70.86 62">
  <defs>
    <style>
      .cls-1 {
        fill: #fff;
        stroke-width: 0px;
      }
    </style>
  </defs>
  <g id="Capa_1-2" data-name="Capa 1">
    <path class="cls-1" d="m69.2,13.29c.92,0,1.66-.74,1.66-1.66V1.66c0-.92-.74-1.66-1.66-1.66h-9.96c-.92,0-1.66.74-1.66,1.66v1.66H13.29v-1.66c0-.92-.74-1.66-1.66-1.66H1.66C.74,0,0,.74,0,1.66v9.96c0,.92.74,1.66,1.66,1.66h1.66v35.43h-1.66c-.92,0-1.66.74-1.66,1.66v9.96c0,.92.74,1.66,1.66,1.66h9.96c.92,0,1.66-.74,1.66-1.66v-1.66h44.29v1.66c0,.92.74,1.66,1.66,1.66h9.96c.92,0,1.66-.74,1.66-1.66v-9.96c0-.92-.74-1.66-1.66-1.66h-1.66V13.29h1.66Zm-7.2-8.86h4.43v4.43h-4.43v-4.43Zm-57.57,0h4.43v4.43h-4.43v-4.43Zm4.43,53.14h-4.43v-4.43h4.43v4.43Zm57.57,0h-4.43v-4.43h4.43v4.43Zm-5.54-8.86h-1.66c-.92,0-1.66.74-1.66,1.66v1.66H13.29v-1.66c0-.92-.74-1.66-1.66-1.66h-1.66V13.29h1.66c.92,0,1.66-.74,1.66-1.66v-1.66h44.29v1.66c0,.92.74,1.66,1.66,1.66h1.66v35.43Zm-4.98-26.57h-11.62v-7.2c0-.92-.74-1.66-1.66-1.66H14.95c-.92,0-1.66.74-1.66,1.66v23.25c0,.92.74,1.66,1.66,1.66h11.62v7.2c0,.92.74,1.66,1.66,1.66h27.68c.92,0,1.66-.74,1.66-1.66v-23.25c0-.92-.74-1.66-1.66-1.66Zm-37.09-3.32h19.93v15.5h-19.93v-15.5Zm33.21,24.36h-19.93v-3.32h10.52c.92,0,1.66-.74,1.66-1.66v-10.52h7.75v15.5Z"/>
  </g>
</svg>