<?xml version="1.0" encoding="UTF-8"?>
<svg id="Capa_2" data-name="Capa 2" xmlns="http://www.w3.org/2000/svg" viewBox="0 0 67 67">
  <defs>
    <style>
      .cls-1 {
        fill: #fff;
        stroke-width: 0px;
      }
    </style>
  </defs>
  <g id="Capa_1-2" data-name="Capa 1">
    <path class="cls-1" d="m60.72,0H18.84c-3.47,0-6.28,2.81-6.28,6.28v6.28h-6.28c-3.47,0-6.28,2.81-6.28,6.28v41.88c0,3.47,2.81,6.28,6.28,6.28h41.87c3.47,0,6.28-2.81,6.28-6.28v-6.28h6.28c3.47,0,6.28-2.81,6.28-6.28V6.28c0-3.47-2.81-6.28-6.28-6.28Zm-12.56,60.72H6.28v-27.22h41.87v27.22Zm12.56-12.56h-6.28v-29.31c0-3.47-2.81-6.28-6.28-6.28h-29.31v-6.28h41.88v41.87Z"/>
  </g>
</svg>