<?xml version="1.0" encoding="UTF-8"?>
<svg id="Capa_2" data-name="Capa 2" xmlns="http://www.w3.org/2000/svg" viewBox="0 0 78 78">
  <defs>
    <style>
      .cls-1 {
        fill: #fff;
        stroke-width: 0px;
      }
    </style>
  </defs>
  <g id="Capa_1-2" data-name="Capa 1">
    <path class="cls-1" d="m20.81,21.14c-1.53.43-2.93,1.23-4.08,2.33-1.15,1.1-2.01,2.46-2.52,3.97L0,70.08l2.24,2.24,22.87-22.87c-.46-.95-.73-2.01-.73-3.14,0-4.04,3.27-7.31,7.31-7.31s7.31,3.27,7.31,7.31-3.27,7.31-7.31,7.31c-1.13,0-2.18-.28-3.14-.73l-22.87,22.87,2.24,2.24,42.63-14.21c1.51-.5,2.87-1.37,3.97-2.52,1.1-1.15,1.9-2.55,2.33-4.08l6.52-23.06-19.5-19.5-23.06,6.52Zm55.05-9.84l-9.16-9.16c-2.86-2.86-7.49-2.86-10.35,0l-8.61,8.61,19.5,19.5,8.61-8.61c2.86-2.86,2.86-7.49,0-10.35Z"/>
  </g>
</svg>